<svg id="Layer_1" enable-background="new 0 0 512.024 512.024" height="512" viewBox="0 0 512.024 512.024" width="512" xmlns="http://www.w3.org/2000/svg"><path d="m160.024 276.662v-92.71l7.72 7.72c17.81 17.81 48.28 5.19 48.28-20 0-3.76-.74-7.43-2.15-10.83-2.991-7.212.256-2.784-85.85-88.89l-79.72 79.72c-5.3 5.3-8.28 12.49-8.28 20 0 25.167 30.446 37.834 48.28 20l7.72-7.72v92.71c-46.26 13.77-80 56.61-80 107.35 0 61.86 50.14 112 112 112s112-50.14 112-112c0-50.74-33.74-93.58-80-107.35zm-32 155.35c-26.51 0-48-21.49-48-48s21.49-48 48-48 48 21.49 48 48-21.49 48-48 48z" fill="#8bc4ff"/><path d="m443.534 312.012c-13.194 0-19.29 7.84-27.51 16.06v-92.71c46.26-13.77 80-56.61 80-107.35 0-61.86-50.14-112-112-112s-112 50.14-112 112c0 50.74 33.74 93.58 80 107.35v92.71l-7.72-7.72c-17.81-17.81-48.28-5.19-48.28 20 0 7.52 2.973 14.693 8.28 20l79.72 79.72 79.72-79.72c17.404-17.404 5.807-48.34-20.21-48.34zm-107.51-184c0-26.51 21.49-48 48-48s48 21.49 48 48-21.49 48-48 48-48-21.49-48-48z" fill="#8bc4ff"/><g fill="#2e58ff"><path d="m128.024 320.012c-35.29 0-64 28.71-64 64s28.71 64 64 64 64-28.71 64-64-28.71-64-64-64zm0 96c-17.645 0-32-14.355-32-32s14.355-32 32-32 32 14.355 32 32-14.356 32-32 32z"/><path d="m176.024 265.345v-50.828c33.717 9.311 67.375-24.256 52.629-59.805-4.593-11.073-1.597-6.355-89.315-94.074-6.242-6.244-16.381-6.248-22.627 0l-79.72 79.72c-8.362 8.361-12.967 19.482-12.967 31.313 0 29.267 28.113 50.451 56 42.793v50.88c-21.263 8.646-40.176 23.079-54.103 41.468-63.097 83.316-4.04 205.198 102.103 205.198 106.111 0 165.225-121.849 102.103-205.198-13.928-18.388-32.841-32.821-54.103-41.467zm-48 214.667c-52.935 0-96-43.065-96-96 0-42.16 28.194-79.998 68.564-92.015 6.784-2.02 11.436-8.256 11.436-15.335v-92.71c0-8.875-7.215-16-15.996-16-8.24 0-11.861 5.23-19.036 12.406-7.895 7.894-20.968 2.087-20.968-8.685 0-3.284 1.276-6.369 3.594-8.687l68.406-68.406c74.72 74.72 69.731 69.164 71.07 72.393 5.19 12.506-10.65 22.774-20.036 13.387l-7.72-7.72c-10.047-10.045-27.314-2.931-27.314 11.313v92.71c0 7.079 4.651 13.315 11.436 15.335 40.37 12.017 68.564 49.855 68.564 92.015 0 52.933-43.066 95.999-96 95.999z"/><path d="m448.024 128.012c0-35.29-28.71-64-64-64s-64 28.71-64 64 28.71 64 64 64 64-28.711 64-64zm-64 32c-17.645 0-32-14.355-32-32s14.355-32 32-32 32 14.355 32 32-14.356 32-32 32z"/><path d="m432.024 297.558v-50.88c46.403-18.868 80-64.286 80-118.667 0-70.58-57.421-128-128-128s-128 57.42-128 128c0 54.359 33.576 99.79 80 118.667v50.829c-33.712-9.309-67.38 24.249-52.629 59.804 4.591 11.074 1.597 6.356 89.315 94.075 6.247 6.248 16.379 6.249 22.627 0l79.721-79.72c31.91-31.913.473-86.054-43.034-74.108zm20.406 51.481-68.406 68.406-68.406-68.406c-7.445-7.445-2.767-21.002 8.916-21.002 6.297 0 8.902 4.073 16.177 11.349 10.045 10.047 27.313 2.928 27.313-11.313v-92.71c0-7.079-4.651-13.315-11.436-15.335-40.37-12.017-68.564-49.855-68.564-92.015 0-52.935 43.065-96 96-96s96 43.065 96 96c0 42.16-28.194 79.998-68.564 92.015-6.784 2.02-11.436 8.256-11.436 15.335v92.71c0 14.205 17.243 21.386 27.313 11.313 7.809-7.808 10.186-11.374 16.196-11.374 11.482 0 16.43 13.492 8.897 21.027z"/></g></svg>