<?xml version="1.0" encoding="UTF-8" standalone="no"?>
<svg xmlns:dc="http://purl.org/dc/elements/1.1/" xmlns:cc="http://creativecommons.org/ns#" xmlns:rdf="http://www.w3.org/1999/02/22-rdf-syntax-ns#"
    xmlns="http://www.w3.org/2000/svg" xmlns:sodipodi="http://sodipodi.sourceforge.net/DTD/sodipodi-0.dtd"
    xmlns:inkscape="http://www.inkscape.org/namespaces/inkscape" version="1.1" id="svg2" xml:space="preserve"
    width="1429.7333" height="1096.0667" viewBox="0 0 1429.7333 1096.0667" sodipodi:docname="101004 TCT 50th Year_LOGO.eps"><metadata
     id="metadata8"><rdf:RDF><cc:Work
         rdf:about=""><dc:format>image/svg+xml</dc:format><dc:type
           rdf:resource="http://purl.org/dc/dcmitype/StillImage" /></cc:Work></rdf:RDF></metadata><defs
     id="defs6" /><sodipodi:namedview
     pagecolor="#ffffff"
     bordercolor="#666666"
     borderopacity="1"
     objecttolerance="10"
     gridtolerance="10"
     guidetolerance="10"
     inkscape:pageopacity="0"
     inkscape:pageshadow="2"
     inkscape:window-width="640"
     inkscape:window-height="480"
     id="namedview4" /><g
     id="g10"
     inkscape:groupmode="layer"
     inkscape:label="ink_ext_XXXXXX"
     transform="matrix(1.3333333,0,0,-1.3333333,0,1096.0667)"><g
       id="g12"
       transform="scale(0.1)"><path
         d="M 172.488,7525.32 C 118.613,7554.62 76.3906,7595.1 45.8398,7646.77 15.2734,7698.43 0,7756.71 0,7821.63 c 0,64.88 15.4336,123.17 46.3125,174.84 30.8633,51.66 73.2505,92.16 127.1215,121.45 53.871,29.3 114.199,43.95 180.996,43.95 54.183,0 103.636,-9.45 148.383,-28.35 44.73,-18.9 82.539,-46.31 113.417,-82.23 l -79.39,-74.66 c -47.895,51.66 -106.801,77.5 -176.742,77.5 -45.368,0 -86.004,-9.93 -121.922,-29.77 -35.914,-19.86 -63.961,-47.43 -84.117,-82.7 -20.176,-35.3 -30.246,-75.3 -30.246,-120.03 0,-44.75 10.07,-84.76 30.246,-120.04 20.156,-35.29 48.203,-62.85 84.117,-82.7 35.918,-19.85 76.554,-29.77 121.922,-29.77 69.941,0 128.847,26.14 176.742,78.45 l 79.39,-75.62 c -30.878,-35.91 -68.847,-63.32 -113.886,-82.22 -45.059,-18.91 -94.676,-28.36 -148.864,-28.36 -66.792,0 -127.117,14.65 -180.992,43.95"
         style="fill:#444142;fill-opacity:1;fill-rule:nonzero;stroke:none"
         id="path14" /><path
         d="m 827.473,7873.13 c -26.157,-22.37 -42.059,-52.14 -47.731,-89.31 h 286.368 c -5.04,36.53 -20.48,66.16 -46.31,88.84 -25.839,22.68 -57.976,34.03 -96.398,34.03 -37.8,0 -69.789,-11.2 -95.929,-33.56 z M 1176.7,7705.37 H 780.684 c 6.929,-37.19 25.046,-66.63 54.343,-88.37 29.305,-21.74 65.692,-32.61 109.172,-32.61 55.434,0 101.131,18.27 137.041,54.82 l 63.33,-72.78 c -22.69,-27.09 -51.37,-47.57 -86.01,-61.43 -34.66,-13.87 -73.724,-20.79 -117.197,-20.79 -55.457,0 -104.297,11.02 -146.5,33.08 -42.218,22.05 -74.828,52.76 -97.816,92.15 -23.016,39.37 -34.496,83.95 -34.496,133.74 0,49.14 11.176,93.4 33.543,132.79 22.363,39.37 53.402,70.08 93.094,92.15 39.699,22.05 84.429,33.08 134.214,33.08 49.149,0 93.098,-10.87 131.838,-32.61 38.76,-21.73 69,-52.31 90.75,-91.68 21.73,-39.38 32.6,-84.91 32.6,-136.57 0,-8.2 -0.64,-19.85 -1.89,-34.97"
         style="fill:#444142;fill-opacity:1;fill-rule:nonzero;stroke:none"
         id="path16" /><path
         d="m 1292,8192.12 h 118.14 v -701.3 H 1292 v 701.3"
         style="fill:#444142;fill-opacity:1;fill-rule:nonzero;stroke:none"
         id="path18" /><path
         d="m 1688.47,7873.13 c -26.16,-22.37 -42.06,-52.14 -47.73,-89.31 h 286.37 c -5.04,36.53 -20.47,66.16 -46.3,88.84 -25.85,22.68 -57.99,34.03 -96.41,34.03 -37.8,0 -69.79,-11.2 -95.93,-33.56 z m 349.23,-167.76 h -396.02 c 6.93,-37.19 25.05,-66.63 54.35,-88.37 29.3,-21.74 65.68,-32.61 109.17,-32.61 55.43,0 101.12,18.27 137.04,54.82 l 63.32,-72.78 c -22.68,-27.09 -51.36,-47.57 -86,-61.43 -34.66,-13.87 -73.73,-20.79 -117.2,-20.79 -55.46,0 -104.29,11.02 -146.5,33.08 -42.22,22.05 -74.83,52.76 -97.82,92.15 -23.01,39.37 -34.5,83.95 -34.5,133.74 0,49.14 11.18,93.4 33.55,132.79 22.36,39.37 53.4,70.08 93.1,92.15 39.7,22.05 84.43,33.08 134.21,33.08 49.14,0 93.1,-10.87 131.85,-32.61 38.75,-21.73 68.99,-52.31 90.73,-91.68 21.74,-39.38 32.61,-84.91 32.61,-136.57 0,-8.2 -0.63,-19.85 -1.89,-34.97"
         style="fill:#444142;fill-opacity:1;fill-rule:nonzero;stroke:none"
         id="path20" /><path
         d="m 2526.8,7628.82 c 28.03,28.97 42.06,67.1 42.06,114.36 0,47.26 -14.03,85.37 -42.06,114.36 -28.05,28.97 -63.8,43.47 -107.27,43.47 -28.36,0 -53.88,-6.46 -76.56,-19.37 -22.69,-12.92 -40.65,-31.35 -53.88,-55.29 -13.23,-23.96 -19.84,-51.67 -19.84,-83.17 0,-31.52 6.61,-59.24 19.84,-83.17 13.23,-23.96 31.19,-42.39 53.88,-55.3 22.68,-12.92 48.2,-19.37 76.56,-19.37 43.47,0 79.22,14.48 107.27,43.48 z m 37.8,340.24 c 38.75,-21.42 69.15,-51.67 91.21,-90.73 22.05,-39.08 33.08,-84.12 33.08,-135.15 0,-51.04 -11.03,-96.26 -33.08,-135.63 -22.06,-39.39 -52.46,-69.79 -91.21,-91.21 -38.75,-21.42 -82.7,-32.13 -131.84,-32.13 -34.66,0 -66.32,6 -94.99,17.95 -28.68,11.97 -52.78,29.93 -72.3,53.88 v -65.22 H 2153 v 701.3 h 118.14 v -258.03 c 20.15,22.05 43.95,38.76 71.36,50.1 27.41,11.34 57.49,17.01 90.26,17.01 49.14,0 93.09,-10.72 131.84,-32.14"
         style="fill:#444142;fill-opacity:1;fill-rule:nonzero;stroke:none"
         id="path22" /><path
         d="m 3093.4,8001.2 v -112.47 c -10.09,1.89 -19.23,2.83 -27.41,2.83 -46,0 -81.92,-13.39 -107.75,-40.16 -25.84,-26.79 -38.75,-65.38 -38.75,-115.78 v -244.8 h -118.14 v 504.71 h 112.47 v -73.72 c 34.02,52.92 93.88,79.39 179.58,79.39"
         style="fill:#444142;fill-opacity:1;fill-rule:nonzero;stroke:none"
         id="path24" /><path
         d="m 3446.41,7590.54 c 22.99,13.54 39.22,32.91 48.67,58.12 v 58.6 h -121.92 c -68.05,0 -102.08,-22.37 -102.08,-67.11 0,-21.42 8.51,-38.44 25.52,-51.03 17.01,-12.62 40.64,-18.91 70.89,-18.91 29.61,0 55.91,6.77 78.92,20.33 z m 107.75,357.26 c 39.37,-35.6 59.06,-89.32 59.06,-161.15 V 7490.82 H 3501.7 v 61.44 c -14.5,-22.06 -35.13,-38.91 -61.91,-50.56 -26.79,-11.65 -59.07,-17.49 -96.87,-17.49 -37.81,0 -70.89,6.47 -99.24,19.38 -28.36,12.9 -50.26,30.86 -65.69,53.87 -15.45,22.99 -23.16,48.98 -23.16,77.97 0,45.37 16.85,81.75 50.57,109.17 33.7,27.4 86.79,41.11 159.25,41.11 h 130.43 v 7.56 c 0,35.28 -10.55,62.37 -31.66,81.28 -21.12,18.9 -52.45,28.35 -94.04,28.35 -28.35,0 -56.24,-4.41 -83.65,-13.23 -27.4,-8.83 -50.56,-21.12 -69.46,-36.86 l -46.32,86.01 c 26.47,20.16 58.28,35.59 95.46,46.31 37.17,10.71 76.56,16.07 118.15,16.07 74.34,0 131.21,-17.81 170.6,-53.4"
         style="fill:#444142;fill-opacity:1;fill-rule:nonzero;stroke:none"
         id="path26" /><path
         d="m 4067.83,7518.23 c -13.87,-11.34 -30.72,-19.84 -50.56,-25.52 -19.85,-5.66 -40.81,-8.5 -62.86,-8.5 -55.45,0 -98.29,14.49 -128.54,43.48 -30.24,28.97 -45.36,71.19 -45.36,126.65 v 242.89 h -83.17 v 94.52 h 83.17 v 115.3 h 118.14 v -115.3 h 135.16 v -94.52 h -135.16 v -240.06 c 0,-24.58 5.98,-43.33 17.96,-56.24 11.96,-12.91 29.3,-19.37 51.98,-19.37 26.46,0 48.51,6.92 66.16,20.79 l 33.08,-84.12"
         style="fill:#444142;fill-opacity:1;fill-rule:nonzero;stroke:none"
         id="path28" /><path
         d="m 4165.18,7995.53 h 118.14 v -504.71 h -118.14 z m 5.66,103.49 c -14.5,13.54 -21.73,30.39 -21.73,50.57 0,20.15 7.23,37 21.73,50.56 14.49,13.54 32.45,20.32 53.88,20.32 21.41,0 39.37,-6.47 53.87,-19.38 14.49,-12.91 21.74,-29.14 21.74,-48.67 0,-20.79 -7.09,-38.28 -21.27,-52.46 -14.17,-14.17 -32.29,-21.26 -54.34,-21.26 -21.43,0 -39.39,6.76 -53.88,20.32"
         style="fill:#444142;fill-opacity:1;fill-rule:nonzero;stroke:none"
         id="path30" /><path
         d="m 4877.79,7945.44 c 38.43,-37.19 57.65,-92.32 57.65,-165.4 V 7490.82 H 4817.3 v 274.09 c 0,44.1 -10.39,77.34 -31.19,99.72 -20.79,22.35 -50.41,33.55 -88.83,33.55 -43.49,0 -77.83,-13.08 -103.03,-39.22 -25.21,-26.16 -37.8,-63.8 -37.8,-112.95 v -255.19 h -118.14 v 504.71 h 112.47 v -65.22 c 19.52,23.3 44.09,40.96 73.72,52.93 29.61,11.96 63,17.96 100.18,17.96 63.64,0 114.67,-18.59 153.11,-55.76"
         style="fill:#444142;fill-opacity:1;fill-rule:nonzero;stroke:none"
         id="path32" /><path
         d="m 5432.1,7653.86 c 28.68,26.78 43.02,61.59 43.02,104.44 0,42.2 -14.34,76.56 -43.02,103.02 -28.67,26.46 -65.38,39.69 -110.11,39.69 -45.36,0 -82.38,-13.23 -111.05,-39.69 -28.68,-26.46 -43.01,-60.82 -43.01,-103.02 0,-42.85 14.33,-77.66 43.01,-104.44 28.67,-26.79 65.69,-40.17 111.05,-40.17 44.73,0 81.44,13.38 110.11,40.17 z m 159.27,341.67 v -428.15 c 0,-177.68 -90.74,-266.53 -272.21,-266.53 -48.53,0 -94.52,6.15 -137.99,18.43 -43.47,12.29 -79.39,30.1 -107.75,53.41 l 52.93,88.83 c 22.05,-18.26 49.93,-32.91 83.65,-43.95 33.7,-11.01 67.89,-16.53 102.53,-16.53 55.45,0 96.09,12.61 121.94,37.8 25.82,25.21 38.76,63.63 38.76,115.31 v 26.46 c -20.18,-22.06 -44.75,-38.75 -73.72,-50.09 -29,-11.34 -60.84,-17.01 -95.47,-17.01 -47.89,0 -91.21,10.23 -129.96,30.72 -38.75,20.47 -69.32,49.29 -91.68,86.47 -22.37,37.18 -33.55,79.71 -33.55,127.6 0,47.88 11.18,90.26 33.55,127.12 22.36,36.86 52.93,65.36 91.68,85.53 38.75,20.16 82.07,30.25 129.96,30.25 36.54,0 69.76,-6 99.72,-17.96 29.91,-11.97 54.97,-30.25 75.13,-54.81 v 67.1 h 112.48"
         style="fill:#444142;fill-opacity:1;fill-rule:nonzero;stroke:none"
         id="path34" /><path
         d="m 7422.52,1637.79 c -526.31,0 -1033.49,155.7 -1467,450.33 l -224.35,166.09 -288.26,251.56 c 18.01,118.79 27.21,241.73 27.21,368.5 0,645.87 -225.57,1180.91 -653.8,1556.41 l 15.06,163.21 c 169.35,1294.91 1282.25,2270.71 2591.14,2270.71 1441.13,0 2613.58,-1172.46 2613.58,-2613.59 0,-1440.95 -1172.45,-2613.22 -2613.58,-2613.22 z m -4298.44,3365 c -269.4,0 -566.02,-56.53 -836.76,-156.16 l 260.71,858.55 1912.31,1.79 c -137.97,-280.36 -236.14,-580.28 -289.86,-891.48 -314.94,122.35 -671.64,187.3 -1046.4,187.3 z M 9756.24,6584.8 c -623.39,623.36 -1452.19,966.67 -2333.72,966.67 -630.8,0 -1243.16,-179.89 -1768.76,-513.76 H 1464.27 L 693.402,3458.16 1949.86,3233.59 l 51.88,63.6 c 261.07,320.06 695.94,434.1 1015.85,434.1 169.21,0 1013.29,-42.79 1013.29,-887.48 0,-302.87 -81.05,-521.23 -247.76,-667.5 -169.74,-148.91 -434.98,-224.41 -788.37,-224.41 -929.13,0 -1070.96,749.38 -1076.43,780.65 l -19.35,116.71 H 525.113 l 17.539,-333.29 c 27.754,-527.01 284.719,-1000.11 723.568,-1332.18 435.8,-329.759 1012.53,-504.079 1667.84,-504.079 748.06,0 1382.59,205.07 1835,593.009 178.64,153.17 324.3,330.79 435.79,529.15 l 95.28,-83.15 252.08,-186.64 10.62,-7.55 c 549.31,-375.28 1192.39,-573.62 1859.69,-573.62 881.52,0 1710.32,343.28 2333.71,966.59 623.37,623.32 966.77,1452.05 966.77,2333.51 0,881.57 -343.4,1710.39 -966.76,2333.79"
         style="fill:#f47216;fill-opacity:1;fill-rule:nonzero;stroke:none"
         id="path36" /><path
         d="M 5696.57,3833.16 H 5554.1 v 59.53 h 364.67 v -59.53 h -142.48 v -320 h -79.72 v 320"
         style="fill:#444142;fill-opacity:1;fill-rule:nonzero;stroke:none"
         id="path38" /><path
         d="m 5957.61,3892.69 h 79.74 v -147.78 h 235.48 v 147.78 h 79.74 v -379.53 h -79.74 v 172.22 h -235.48 v -172.22 h -79.74 v 379.53"
         style="fill:#444142;fill-opacity:1;fill-rule:nonzero;stroke:none"
         id="path40" /><path
         d="m 6430.23,3892.69 h 79.74 v -379.53 h -79.74 v 379.53"
         style="fill:#444142;fill-opacity:1;fill-rule:nonzero;stroke:none"
         id="path42" /><path
         d="m 6805.01,3722.58 c 44.12,0 68.06,13.3 68.06,55.82 0,39.35 -26.08,54.76 -68.06,54.76 h -137.68 v -110.58 z m -217.42,170.11 h 240.26 c 96.77,0 128.12,-44.12 128.12,-103.13 0,-49.43 -27.09,-80.27 -62.7,-91.41 v -1.07 c 45.17,-9.58 55.27,-48.91 55.27,-102.59 0,-18.09 0.52,-60.6 15.94,-81.33 h -86.09 c -5.85,10.63 -9.58,29.77 -9.58,57.39 0,54.23 -7.44,92.5 -65.92,92.5 h -135.56 v -149.89 h -79.74 v 379.53"
         style="fill:#444142;fill-opacity:1;fill-rule:nonzero;stroke:none"
         id="path44" /><path
         d="m 7017.69,3892.69 h 79.71 v -214.23 c 0,-52.61 2.11,-116.39 105.77,-116.39 104.2,0 106.32,63.78 106.32,116.39 v 214.23 h 79.74 v -216.35 c 0,-62.71 -2.12,-173.82 -186.06,-173.82 -183.38,0 -185.48,111.11 -185.48,173.82 v 216.35"
         style="fill:#444142;fill-opacity:1;fill-rule:nonzero;stroke:none"
         id="path46" /><path
         d="m 7463.7,3892.69 h 114.84 l 132.87,-294.49 131.84,294.49 h 113.74 v -379.53 h -74.94 l 3.19,313.62 h -1.07 l -140.33,-313.62 h -68.05 l -139.27,313.62 h -1.04 l 3.18,-313.62 h -74.96 v 379.53"
         style="fill:#444142;fill-opacity:1;fill-rule:nonzero;stroke:none"
         id="path48" /><path
         d="m 8271.23,3666.76 -64.85,160.02 -65.91,-160.02 z m -111.09,225.93 h 94.62 l 169.03,-379.53 h -88.77 l -39.87,94.07 h -178.62 l -39.32,-94.07 h -86.12 l 169.05,379.53"
         style="fill:#444142;fill-opacity:1;fill-rule:nonzero;stroke:none"
         id="path50" /><path
         d="m 8457.85,3892.69 h 79.74 v -316.81 h 230.7 v -62.72 h -310.44 v 379.53"
         style="fill:#444142;fill-opacity:1;fill-rule:nonzero;stroke:none"
         id="path52" /><path
         d="m 9049,3666.76 -64.85,160.02 -65.9,-160.02 z m -111.09,225.93 h 94.62 l 169.03,-379.53 h -88.77 l -39.86,94.07 h -178.61 l -39.33,-94.07 h -86.11 l 169.03,379.53"
         style="fill:#444142;fill-opacity:1;fill-rule:nonzero;stroke:none"
         id="path54" /><path
         d="m 9235.63,3892.69 h 79.74 v -379.53 h -79.74 v 379.53"
         style="fill:#444142;fill-opacity:1;fill-rule:nonzero;stroke:none"
         id="path56" /><path
         d="m 6446.14,3114.41 c -7.97,57.39 -55.27,91.41 -122.26,91.41 -73.35,0 -128.1,-48.9 -128.1,-147.78 0,-79.2 54.75,-133.94 133.42,-133.94 82.92,0 110.57,56.35 116.94,96.21 h 86.12 c -11.16,-75.48 -60.61,-155.74 -216.88,-155.74 -137.15,0 -202.53,93.55 -202.53,200.39 0,106.84 62.72,200.42 212.09,200.42 130.76,0 198.8,-69.11 207.32,-150.97 h -86.12"
         style="fill:#444142;fill-opacity:1;fill-rule:nonzero;stroke:none"
         id="path58" /><path
         d="m 6596.63,3254.72 h 79.74 v -147.75 h 235.51 v 147.75 h 79.72 v -379.53 h -79.72 v 172.23 h -235.51 v -172.23 h -79.74 v 379.53"
         style="fill:#444142;fill-opacity:1;fill-rule:nonzero;stroke:none"
         id="path60" /><path
         d="m 7305.78,3028.82 -64.83,160 -65.93,-160 z m -111.1,225.9 h 94.63 l 169.05,-379.53 h -88.77 l -39.87,94.08 H 7151.1 l -39.34,-94.08 h -86.1 l 169.02,379.53"
         style="fill:#444142;fill-opacity:1;fill-rule:nonzero;stroke:none"
         id="path62" /><path
         d="m 7709.83,3084.63 c 44.13,0 68.04,13.28 68.04,55.82 0,39.33 -26.05,54.74 -68.04,54.74 h -137.67 v -110.56 z m -217.41,170.09 h 240.27 c 96.75,0 128.11,-44.1 128.11,-103.1 0,-49.46 -27.1,-80.29 -62.71,-91.44 v -1.07 c 45.16,-9.56 55.27,-48.9 55.27,-102.59 0,-18.07 0.53,-60.6 15.95,-81.33 h -86.11 c -5.85,10.63 -9.58,29.77 -9.58,57.41 0,54.21 -7.44,92.49 -65.91,92.49 h -135.55 v -149.9 h -79.74 v 379.53"
         style="fill:#444142;fill-opacity:1;fill-rule:nonzero;stroke:none"
         id="path64" /><path
         d="m 7925.69,3254.72 h 79.75 v -379.53 h -79.75 v 379.53"
         style="fill:#444142;fill-opacity:1;fill-rule:nonzero;stroke:none"
         id="path66" /><path
         d="m 8186.71,3195.19 h -142.45 v 59.53 h 364.65 v -59.53 h -142.46 v -320 h -79.74 v 320"
         style="fill:#444142;fill-opacity:1;fill-rule:nonzero;stroke:none"
         id="path68" /><path
         d="m 8571.08,3019.78 -165.85,234.94 h 97.29 l 108.44,-169.03 108.42,169.03 h 97.29 l -165.85,-234.94 v -144.59 h -79.74 v 144.59"
         style="fill:#444142;fill-opacity:1;fill-rule:nonzero;stroke:none"
         id="path70" /><path
         d="m 6596.89,2557.22 h -142.47 v 59.53 h 364.67 v -59.53 H 6676.61 V 2237.2 h -79.72 v 320.02"
         style="fill:#444142;fill-opacity:1;fill-rule:nonzero;stroke:none"
         id="path72" /><path
         d="m 7075.32,2446.66 c 44.13,0 68.05,13.29 68.05,55.82 0,39.32 -26.06,54.74 -68.05,54.74 h -137.63 v -110.56 z m -217.37,170.09 h 240.22 c 96.76,0 128.12,-44.12 128.12,-103.12 0,-49.43 -27.1,-80.26 -62.72,-91.44 v -1.04 c 45.18,-9.58 55.28,-48.91 55.28,-102.62 0,-18.06 0.53,-60.59 15.95,-81.33 h -86.11 c -5.85,10.63 -9.58,29.77 -9.58,57.42 0,54.22 -7.44,92.51 -65.89,92.51 H 6937.69 V 2237.2 h -79.74 v 379.55"
         style="fill:#444142;fill-opacity:1;fill-rule:nonzero;stroke:none"
         id="path74" /><path
         d="m 7288.01,2616.75 h 79.73 v -214.22 c 0,-52.63 2.12,-116.42 105.78,-116.42 104.19,0 106.31,63.79 106.31,116.42 v 214.22 h 79.74 v -216.33 c 0,-62.75 -2.12,-173.84 -186.05,-173.84 -183.4,0 -185.51,111.09 -185.51,173.84 v 216.33"
         style="fill:#444142;fill-opacity:1;fill-rule:nonzero;stroke:none"
         id="path76" /><path
         d="m 7881.3,2627.39 c 58.47,0 175.41,-10.64 185.51,-120.68 h -86.11 c -2.66,29.24 -29.24,61.15 -95.69,61.15 -53.15,0 -88.25,-16.48 -88.25,-52.09 0,-89.33 282.82,-3.73 282.82,-165.87 0,-97.81 -101.54,-123.32 -182.35,-123.32 -136.6,0 -191.36,53.68 -192.43,133.42 h 86.12 c 2.14,-49.97 43.59,-73.89 108.97,-73.89 48.38,0 93.56,14.36 93.56,55.82 0,94.1 -279.61,12.22 -279.61,167.99 0,84.51 74.96,117.47 167.46,117.47"
         style="fill:#444142;fill-opacity:1;fill-rule:nonzero;stroke:none"
         id="path78" /><path
         d="m 8231.65,2557.22 h -142.47 v 59.53 h 364.67 v -59.53 H 8311.37 V 2237.2 h -79.72 v 320.02"
         style="fill:#444142;fill-opacity:1;fill-rule:nonzero;stroke:none"
         id="path80" /><path
         d="M 8742.39,5319.03 H 7524.96 v 35.3 h 1217.43 z m 17.99,17.53 v -17.53 h -17.99 v 17.53 z m 0,0 v 0 h -35.3 v 0 z m -35.3,0 v 0 h 17.31 z m 35.3,0 v 0 h -35.3 v 0 z m 0,0 v 0 h -35.3 v 0 z m -394.34,946.06 c 245.51,-245.39 394.34,-578.24 394.34,-946.06 h -35.3 c 0,359.16 -148.83,683.02 -385.33,919.64 z m -937.29,394.24 c 367.81,0 700.77,-149.18 937.29,-394.24 l -26.29,-26.42 c -236.29,236.52 -560.73,376.7 -911,376.7 z m 0,0 v 0 -43.96 z m 0,0 v 0 -43.96 0 z m -946.04,-394.24 c 245.3,245.06 578.24,394.24 946.04,394.24 v -43.96 c -359.27,0 -682.99,-140.18 -919.5,-376.7 z m -393.89,-946.06 c 0,367.82 148.83,700.67 393.89,946.06 l 26.54,-26.42 c -236.74,-236.62 -376.81,-560.48 -376.81,-919.64 z m 0,0 v 0 h 43.62 v 0 z m 0,0 v 0 h 43.62 v 0 z m 43.62,0 v 0 h -26.31 z m -43.62,0 v 0 h 43.62 v 0 z m 17.31,-17.53 h -17.31 v 17.53 h 17.31 z m 1252.48,0 H 6106.13 v 35.3 h 1252.48 v -35.3"
         style="fill:#30322e;fill-opacity:1;fill-rule:nonzero;stroke:none"
         id="path82" /><path
         d="m 7428.75,6659.43 c 718.09,0 1313.64,-595.9 1313.64,-1322.87 v 0 H 6106.13 v 0 c 0,726.97 595.79,1322.87 1322.62,1322.87 v 0"
         style="fill:#f2f69a;fill-opacity:1;fill-rule:evenodd;stroke:none"
         id="path84" /><path
         d="m 6693.14,5643.23 c 78.7,0 139.84,-61.27 139.84,-140.29 0,-69.92 -61.14,-131.3 -139.84,-131.3 -70.13,0 -131.51,61.38 -131.51,131.3 0,79.02 61.38,140.29 131.51,140.29 v 0"
         style="fill:#dd5126;fill-opacity:1;fill-rule:evenodd;stroke:none"
         id="path86" /><path
         d="m 8199.68,5643.23 c 78.69,0 131.51,-61.27 131.51,-140.29 0,-69.92 -52.82,-131.3 -131.51,-131.3 -70.16,0 -131.31,61.38 -131.31,131.3 0,79.02 61.15,140.29 131.31,140.29 v 0"
         style="fill:#dd5126;fill-opacity:1;fill-rule:evenodd;stroke:none"
         id="path88" /><path
         d="m 7674.04,4740.89 c -8.55,184.02 -78.69,289.01 -201.67,289.01 -140.07,0 -236.3,-148.83 -236.3,-385.11 0,-210.45 87.68,-385.81 236.3,-385.81 131.52,0 201.67,158.06 201.67,306.89 h -131.31 c -8.98,-70.27 -35.06,-122.75 -78.91,-122.75 -61.38,0 -87.45,105.21 -87.45,201.67 0,104.98 26.07,201.32 87.45,201.32 61.14,0 69.93,-79.03 69.93,-105.22 h 140.29"
         style="fill:#14a662;fill-opacity:1;fill-rule:evenodd;stroke:none"
         id="path90" /><path
         d="m 7428.75,5800.83 c -87.45,87.34 -148.83,209.97 -148.83,350.39 0,140.18 61.38,262.58 148.83,350.27 96.21,-87.69 157.84,-210.09 157.84,-350.27 0,-140.42 -61.63,-263.05 -157.84,-350.39 v 0"
         style="fill:#14a662;fill-opacity:1;fill-rule:evenodd;stroke:none"
         id="path92" /><path
         d="m 7463.82,5511.7 c 0,122.76 52.62,245.28 157.61,341.5 96.44,87.69 218.96,131.64 350.49,113.99 -8.76,-122.52 -52.38,-245.28 -157.6,-332.73 -96.45,-96.46 -227.73,-131.52 -350.5,-122.76 v 0"
         style="fill:#14a662;fill-opacity:1;fill-rule:evenodd;stroke:none"
         id="path94" /><path
         d="m 7411.44,5511.7 c 0,122.76 -52.83,245.28 -148.83,341.5 -96.45,87.69 -227.97,131.64 -350.7,113.99 0,-122.52 52.61,-245.28 149.04,-332.73 105.21,-96.46 227.73,-131.52 350.49,-122.76 v 0"
         style="fill:#14a662;fill-opacity:1;fill-rule:evenodd;stroke:none"
         id="path96" /><path
         d="m 6421.56,5336.56 h 928.5 c 43.62,-34.84 34.84,-113.99 0,-131.29 l -446.68,-236.75 v 0 -542.94 c -8.78,-306.55 -481.82,-341.74 -481.82,0 v 648.28 0 h -411.87 c -113.53,17.3 -140.06,218.98 0,262.7 h 411.87"
         style="fill:#30322e;fill-opacity:1;fill-rule:evenodd;stroke:none"
         id="path98" /><path
         d="m 8453.5,5336.56 h -928.54 c -52.59,-34.84 -43.59,-113.99 0,-131.29 l 438.2,-236.75 h 8.76 v -542.94 c 8.77,-306.55 472.8,-341.74 481.58,0 v 648.28 0 h 402.89 c 122.52,17.3 140.51,218.98 0,262.7 H 8453.5"
         style="fill:#30322e;fill-opacity:1;fill-rule:evenodd;stroke:none"
         id="path100" /><path
         d="M 6527.41,240.059 V 6.62109 H 6404.55 V 238.18 l -259.92,430.031 h 131.39 l 193.75,-322.293 195.63,322.293 h 120.99 L 6527.41,240.059"
         style="fill:#444142;fill-opacity:1;fill-rule:nonzero;stroke:none"
         id="path102" /><path
         d="m 6922.02,388.91 c -26.14,-22.359 -42.04,-52.129 -47.71,-89.308 h 286.33 c -5.05,36.527 -20.48,66.179 -46.3,88.847 -25.85,22.692 -57.97,34.031 -96.38,34.031 -37.82,0 -69.8,-11.191 -95.94,-33.57 z m 349.21,-167.75 h -395.99 c 6.95,-37.191 25.05,-66.629 54.35,-88.371 29.3,-21.738 65.68,-32.598 109.16,-32.598 55.4,0 101.09,18.258 137.02,54.821 L 7239.1,82.2188 C 7216.4,55.1211 7187.72,34.6406 7153.08,20.7891 7118.43,6.92969 7079.36,0 7035.9,0 c -55.45,0 -104.28,11.0195 -146.46,33.0703 -42.26,22.0508 -74.85,52.7695 -97.85,92.1487 -23.02,39.39 -34.5,83.98 -34.5,133.75 0,49.14 11.17,93.41 33.55,132.793 22.35,39.367 53.39,70.078 93.12,92.148 39.69,22.051 84.41,33.078 134.2,33.078 49.12,0 93.07,-10.879 131.83,-32.617 38.73,-21.742 68.98,-52.289 90.72,-91.66 21.74,-39.379 32.62,-84.922 32.62,-136.582 0,-8.199 -0.66,-19.848 -1.9,-34.969"
         style="fill:#444142;fill-opacity:1;fill-rule:nonzero;stroke:none"
         id="path104" /><path
         d="m 7628,106.328 c 23,13.543 39.22,32.91 48.67,58.133 v 58.578 h -121.9 c -68.07,0 -102.09,-22.359 -102.09,-67.09 0,-21.418 8.51,-38.437 25.53,-51.039 17,-12.6209 40.62,-18.91 70.87,-18.91 29.62,0 55.9,6.7695 78.92,20.328 z m 107.74,357.25 c 39.37,-35.598 59.07,-89.316 59.07,-161.129 V 6.62109 H 7683.3 V 68.0508 C 7668.79,45.9805 7648.16,29.1289 7621.38,17.4805 7594.59,5.82031 7562.3,0 7524.51,0 c -37.81,0 -70.89,6.46875 -99.23,19.3594 -28.36,12.9101 -50.26,30.8789 -65.69,53.9023 -15.45,22.9688 -23.16,48.9573 -23.16,77.9493 0,45.391 16.85,81.769 50.55,109.168 33.71,27.422 86.81,41.133 159.27,41.133 h 130.42 v 7.539 c 0,35.277 -10.56,62.379 -31.65,81.289 -21.12,18.898 -52.46,28.371 -94.05,28.371 -28.34,0 -56.22,-4.43 -83.64,-13.25 -27.42,-8.832 -50.56,-21.121 -69.47,-36.859 l -46.3,86.007 c 26.45,20.161 58.27,35.59 95.46,46.301 37.16,10.719 76.55,16.078 118.14,16.078 74.33,0 131.2,-17.808 170.58,-53.41"
         style="fill:#444142;fill-opacity:1;fill-rule:nonzero;stroke:none"
         id="path106" /><path
         d="M 8238.09,516.988 V 404.512 c -10.08,1.886 -19.22,2.828 -27.42,2.828 -45.99,0 -81.9,-13.399 -107.74,-40.16 -25.85,-26.789 -38.74,-65.379 -38.74,-115.782 V 6.62109 H 7946.05 V 511.309 h 112.46 V 437.59 c 34.02,52.922 93.88,79.398 179.58,79.398"
         style="fill:#444142;fill-opacity:1;fill-rule:nonzero;stroke:none"
         id="path108" /><path
         d="m 8376.07,16.0703 c -39.07,10.6914 -70.26,24.2305 -93.54,40.6289 l 45.36,89.7888 c 22.68,-15.129 49.93,-27.269 81.75,-36.386 31.82,-9.141 63.15,-13.7114 94.03,-13.7114 70.58,0 105.86,18.5784 105.86,55.7574 0,17.653 -8.97,29.942 -26.94,36.883 -17.94,6.91 -46.79,13.528 -86.47,19.84 -41.58,6.289 -75.46,13.551 -101.6,21.738 -26.16,8.18 -48.84,22.512 -68.06,43 -19.22,20.481 -28.82,48.981 -28.82,85.539 0,47.883 20,86.153 60.02,114.832 40.01,28.668 94.05,43.008 162.09,43.008 34.64,0 69.3,-3.937 103.97,-11.82 34.65,-7.879 62.99,-18.43 85.06,-31.656 l -45.38,-89.793 c -42.84,25.191 -91.06,37.812 -144.59,37.812 -34.67,0 -60.96,-5.203 -78.93,-15.601 -17.96,-10.391 -26.93,-24.102 -26.93,-41.121 0,-18.891 9.6,-32.278 28.82,-40.168 19.23,-7.879 48.99,-15.27 89.32,-22.192 40.31,-6.308 73.38,-13.57 99.23,-21.738 25.85,-8.191 48.05,-22.07 66.64,-41.582 18.57,-19.539 27.87,-47.277 27.87,-83.18 0,-47.269 -20.47,-85.0584 -61.43,-113.4177 C 8622.44,14.1719 8566.68,0 8496.12,0 c -40.97,0 -80.97,5.35938 -120.05,16.0703"
         style="fill:#444142;fill-opacity:1;fill-rule:nonzero;stroke:none"
         id="path110" /></g></g></svg>
